<svg width="20" height="20" viewBox="0 0 20 20" fill="none" xmlns="http://www.w3.org/2000/svg">
<path d="M17.5 4.16666L2.50001 4.16666C2.34814 4.16714 2.19928 4.20902 2.06944 4.28781C1.93961 4.3666 1.83372 4.4793 1.76318 4.61379C1.69263 4.74828 1.6601 4.89946 1.66909 5.05106C1.67807 5.20267 1.72823 5.34895 1.81417 5.47416L9.31417 16.3075C9.625 16.7567 10.3733 16.7567 10.685 16.3075L18.185 5.47416C18.2718 5.34921 18.3227 5.20286 18.3322 5.051C18.3417 4.89915 18.3094 4.7476 18.2387 4.61282C18.1681 4.47805 18.0619 4.3652 17.9317 4.28654C17.8015 4.20788 17.6522 4.16642 17.5 4.16666Z" fill="black" fill-opacity="0.5"/>
</svg>
