<svg width="20" height="20" viewBox="0 0 20 20" fill="none" xmlns="http://www.w3.org/2000/svg">
<path d="M4.16667 2.50001L4.16667 17.5C4.16715 17.6519 4.20903 17.8007 4.28782 17.9306C4.36661 18.0604 4.47931 18.1663 4.6138 18.2368C4.74829 18.3074 4.89947 18.3399 5.05107 18.3309C5.20268 18.3219 5.34896 18.2718 5.47417 18.1858L16.3075 10.6858C16.7567 10.375 16.7567 9.62668 16.3075 9.31501L5.47417 1.81501C5.34922 1.7282 5.20286 1.67729 5.05101 1.66781C4.89915 1.65834 4.74761 1.69066 4.61283 1.76127C4.47806 1.83188 4.36521 1.93807 4.28655 2.06831C4.20789 2.19855 4.16643 2.34786 4.16667 2.50001Z" fill="black" fill-opacity="0.5"/>
</svg>
