<svg width="28" height="28" viewBox="0 0 28 28" fill="none" xmlns="http://www.w3.org/2000/svg">
<circle cx="14" cy="14" r="14" fill="#B1302F"/>
<path d="M14.8833 6.73593C14.649 6.50184 14.3313 6.37036 14 6.37036C13.6688 6.37036 13.351 6.50184 13.1167 6.73593L8.40084 11.4493C8.16635 11.6838 8.03461 12.0018 8.03461 12.3334C8.03461 12.6651 8.16635 12.9831 8.40084 13.2176C8.63534 13.4521 8.95338 13.5838 9.28501 13.5838C9.61663 13.5838 9.93468 13.4521 10.1692 13.2176L12.75 10.6376V20.2501C12.75 20.5816 12.8817 20.8996 13.1161 21.134C13.3505 21.3684 13.6685 21.5001 14 21.5001C14.3315 21.5001 14.6495 21.3684 14.8839 21.134C15.1183 20.8996 15.25 20.5816 15.25 20.2501V10.6376L17.83 13.2176C17.9461 13.3337 18.084 13.4258 18.2357 13.4886C18.3874 13.5515 18.55 13.5838 18.7142 13.5838C18.8784 13.5838 19.041 13.5515 19.1927 13.4886C19.3444 13.4258 19.4822 13.3337 19.5983 13.2176C19.7145 13.1015 19.8066 12.9636 19.8694 12.8119C19.9322 12.6602 19.9646 12.4976 19.9646 12.3334C19.9646 12.1692 19.9322 12.0066 19.8694 11.8549C19.8066 11.7032 19.7145 11.5654 19.5983 11.4493L14.8833 6.73593Z" fill="white"/>
</svg>
